<svg id="Calque_1" xmlns="http://www.w3.org/2000/svg" xmlns:xlink="http://www.w3.org/1999/xlink" viewBox="50 80 500 350">
  <defs>
    <style>
      .cls-1 {
        font-family: Bahnschrift-Bold, Bahnschrift;
        font-size: 124px;
        font-variation-settings: 'wght' 700, 'wdth' 100;
        font-weight: 700;
        letter-spacing: .01em;
      }

      .cls-1, .cls-2 {
        fill: #2378bb;
      }

      .cls-3 {
        fill: url(#Nouvelle_nuance_de_dégradé_2-5);
      }

      .cls-4 {
        fill: url(#Nouvelle_nuance_de_dégradé_2-6);
      }

      .cls-5 {
        fill: url(#Nouvelle_nuance_de_dégradé_2-4);
      }

      .cls-6 {
        fill: url(#Nouvelle_nuance_de_dégradé_2-8);
      }

      .cls-7 {
        fill: url(#Nouvelle_nuance_de_dégradé_2);
      }

      .cls-8 {
        fill: url(#Nouvelle_nuance_de_dégradé_2-3);
      }

      .cls-9 {
        fill: url(#Nouvelle_nuance_de_dégradé_2-2);
      }

      .cls-10 {
        fill: #96c998;
      }

      .cls-11 {
        fill: url(#Nouvelle_nuance_de_dégradé_2-7);
      }

      .cls-12 {
        fill: url(#Nouvelle_nuance_de_dégradé_2-9);
      }
    </style>
    <linearGradient id="Nouvelle_nuance_de_dégradé_2" data-name="Nouvelle nuance de dégradé 2" x1="238.34" y1="400.45" x2="-.94" y2="56.97" gradientUnits="userSpaceOnUse">
      <stop offset="0" stop-color="#f4e600"/>
      <stop offset="0" stop-color="#f2e500"/>
      <stop offset=".11" stop-color="#9ad159"/>
      <stop offset=".22" stop-color="#48bfad"/>
      <stop offset=".27" stop-color="#29b8ce"/>
      <stop offset=".47" stop-color="#388eb9"/>
      <stop offset=".7" stop-color="#4866a6"/>
      <stop offset=".88" stop-color="#514e9a"/>
      <stop offset=".99" stop-color="#554596"/>
    </linearGradient>
    <linearGradient id="Nouvelle_nuance_de_dégradé_2-2" data-name="Nouvelle nuance de dégradé 2" x1="303.25" y1="355.24" x2="63.95" y2="11.76" xlink:href="#Nouvelle_nuance_de_dégradé_2"/>
    <linearGradient id="Nouvelle_nuance_de_dégradé_2-3" data-name="Nouvelle nuance de dégradé 2" x1="275.42" y1="374.61" x2="36.14" y2="31.15" xlink:href="#Nouvelle_nuance_de_dégradé_2"/>
    <linearGradient id="Nouvelle_nuance_de_dégradé_2-4" data-name="Nouvelle nuance de dégradé 2" x1="254.66" y1="389.07" x2="15.38" y2="45.61" xlink:href="#Nouvelle_nuance_de_dégradé_2"/>
    <linearGradient id="Nouvelle_nuance_de_dégradé_2-5" data-name="Nouvelle nuance de dégradé 2" x1="295.79" y1="360.42" x2="56.51" y2="16.95" xlink:href="#Nouvelle_nuance_de_dégradé_2"/>
    <linearGradient id="Nouvelle_nuance_de_dégradé_2-6" data-name="Nouvelle nuance de dégradé 2" x1="355" y1="319.17" x2="115.72" y2="-24.3" xlink:href="#Nouvelle_nuance_de_dégradé_2"/>
    <linearGradient id="Nouvelle_nuance_de_dégradé_2-7" data-name="Nouvelle nuance de dégradé 2" x1="314.82" y1="347.16" x2="75.54" y2="3.69" xlink:href="#Nouvelle_nuance_de_dégradé_2"/>
    <linearGradient id="Nouvelle_nuance_de_dégradé_2-8" data-name="Nouvelle nuance de dégradé 2" x1="345.01" y1="326.13" x2="105.72" y2="-17.33" xlink:href="#Nouvelle_nuance_de_dégradé_2"/>
    <linearGradient id="Nouvelle_nuance_de_dégradé_2-9" data-name="Nouvelle nuance de dégradé 2" x1="331.48" y1="335.55" x2="92.2" y2="-7.91" xlink:href="#Nouvelle_nuance_de_dégradé_2"/>
  </defs>
  <g>
    <g>
      <path class="cls-2" d="M287.82,271.51c-.33,9.51-8.85,15.95-20.98,15.95-11.04,0-20.76-6.12-22.51-12.57l10.6-5.68c1.09,2.73,5.68,4.92,9.4,5.14,3.93.22,8.31-.76,8.2-3.61-.11-2.95-2.62-3.28-9.94-5.79-11.47-4.04-16.5-7.98-16.17-16.61.33-7.32,6.23-14.97,19.89-14.97,12.67,0,18.69,8.2,19.45,13l-11.15,3.17c-.55-1.75-2.29-4.26-6.34-4.59-5.57-.44-6.99,2.3-6.88,3.72.11,1.97,1.64,3.28,9.94,5.79,12.35,3.82,16.83,9.07,16.5,17.05Z"/>
      <path class="cls-2" d="M306.71,265.61c1.64,5.14,5.68,8.63,11.69,8.63,4.26,0,7.65-1.75,9.73-4.7l12.02,5.9c-4.37,7.32-12.13,12.13-21.75,12.13-15.19,0-26.66-12.02-26.66-27.21s10.93-27.1,26.12-27.1,24.37,11.91,24.37,27.1c0,1.86-.11,3.61-.44,5.24h-35.08ZM306.6,255.45h21.86c-1.2-5.24-4.48-8.96-10.6-8.96s-9.94,3.72-11.26,8.96Z"/>
      <path class="cls-2" d="M362.11,265.61c1.64,5.14,5.68,8.63,11.69,8.63,4.26,0,7.65-1.75,9.73-4.7l12.02,5.9c-4.37,7.32-12.13,12.13-21.75,12.13-15.19,0-26.66-12.02-26.66-27.21s10.93-27.1,26.12-27.1,24.37,11.91,24.37,27.1c0,1.86-.11,3.61-.44,5.24h-35.08ZM362,255.45h21.86c-1.2-5.24-4.48-8.96-10.6-8.96s-9.94,3.72-11.25,8.96Z"/>
    </g>
    <g>
      <g>
        <path class="cls-7" d="M196.81,250.53c-13.74-9.49-29.43-14.25-44.61-18.84-33.02-10-31.64-16.41-31.12-18.82.93-4.34,11.74-9.23,24.3-9.02,10.96.17,23.53,3.46,30.55,8.01,14.29,9.23,33.53,5.18,42.88-9.03,4.54-6.89,6.06-15.22,4.29-23.46-1.8-8.34-6.92-15.7-14.07-20.23-17.09-10.81-41.45-17.53-63.57-17.53-23.25,0-43.67,5.64-59.04,16.32-18.62,12.93-28.87,32.21-28.87,54.27,0,24.87,10.49,45.38,30.34,59.32,14.27,10.03,31.4,15.47,46.33,19.76,16.75,4.83,29.42,9.22,27.64,18.01-1.01,4.96-11.52,6.21-21.5,5.24-8.67-.85-24.79-3.77-35.36-13.91-2.07-1.98-5.35-1.91-7.33.16-1.98,2.07-1.91,5.35.15,7.33,12.84,12.31,31.54,15.77,41.55,16.74,18.65,1.82,30.56-3.11,32.66-13.49,3.83-18.87-18.58-25.33-34.93-30.05-14.13-4.07-30.28-9.17-43.23-18.28-16.96-11.92-25.93-29.5-25.93-50.84,0-18.57,8.67-34.82,24.41-45.75,13.63-9.46,32-14.47,53.12-14.47s42.49,6.1,58.02,15.92c4.81,3.04,8.26,8.02,9.47,13.65,1.19,5.49.19,11.02-2.81,15.57-6.24,9.47-19.06,12.17-28.59,6.01-8.64-5.58-23.11-9.46-36.02-9.67-14.91-.21-32.13,5.72-34.6,17.21-3.25,15.07,12.94,23.27,38.25,30.94,14.41,4.36,29.31,8.87,41.72,17.45,16.47,11.39,25.11,28.13,24.96,48.47-.03,18.18-8.54,34.06-23.96,44.74-13.33,9.23-31.32,14.1-52.04,14.1-30.79,0-54.47-9.37-74.08-29.38l6.2-6.2c3.09-3.09,8.12-3.33,11.43-.53,15.04,12.67,36.67,20.55,56.45,20.55,17.54,0,32.48-3.91,43.19-11.33,11.29-7.81,17.26-18.89,17.26-32,.28-34.03-29.42-43.02-55.63-50.96-27.26-8.25-50.81-15.38-50.81-44.32,0-20.82,20.25-34.28,51.6-34.28,2.86,0,5.18-2.33,5.18-5.19s-2.32-5.19-5.18-5.19c-17.94,0-33.24,4.04-44.24,11.69-11.43,7.94-17.73,19.65-17.73,32.97,0,36.63,30.9,45.99,58.18,54.25,26.01,7.88,48.48,14.68,48.26,40.98,0,20.05-19.65,33.01-50.07,33.01-17.44,0-36.51-6.94-49.76-18.11-7.4-6.24-18.58-5.75-25.45,1.13l-9.76,9.75c-1.95,1.95-2.03,5.08-.18,7.14,22.37,24.83,49.43,36.4,85.16,36.4,22.84,0,42.88-5.51,57.94-15.93,18.3-12.66,28.4-31.57,28.44-53.23.17-23.89-10.01-43.61-29.44-57.04Z"/>
        <path class="cls-9" d="M190.98,190.07c.87.56,1.85.83,2.81.83,1.7,0,3.37-.84,4.37-2.37,1.56-2.41.86-5.62-1.54-7.17-7.04-4.55-15.99-8.25-25.87-10.72-2.78-.69-5.6,1-6.29,3.78-.69,2.77,1,5.59,3.78,6.28,8.67,2.17,16.75,5.49,22.76,9.37Z"/>
      </g>
      <path class="cls-8" d="M89.09,96.81c-.86-2.16-3.32-3.2-5.48-2.34-2.15.87-3.2,3.33-2.34,5.48l5.92,14.83c.87,2.16,3.32,3.2,5.47,2.34,2.16-.87,3.21-3.33,2.35-5.48l-5.93-14.83Z"/>
      <path class="cls-5" d="M64.66,108.02c-1.19-1.99-3.78-2.65-5.78-1.46-1.99,1.2-2.65,3.79-1.45,5.77l8.52,14.19c1.19,1.99,3.77,2.64,5.77,1.46,1.99-1.2,2.65-3.79,1.45-5.77l-8.51-14.19Z"/>
      <path class="cls-3" d="M115.94,90.06c-.46-2.29-2.68-3.77-4.97-3.31-2.28.46-3.77,2.68-3.32,4.97l3.04,15.2c.46,2.28,2.68,3.78,4.97,3.31,2.29-.45,3.78-2.68,3.32-4.97l-3.04-15.21Z"/>
      <path class="cls-4" d="M220.76,106.56c-1.99-1.2-4.58-.53-5.77,1.46l-8.51,14.18c-1.2,1.99-.53,4.59,1.45,5.78,2,1.19,4.58.53,5.78-1.46l8.51-14.18c1.2-1.99.55-4.58-1.45-5.77Z"/>
      <path class="cls-11" d="M139.82,84.06c-2.33,0-4.22,1.9-4.22,4.23v15.34c0,2.33,1.89,4.23,4.22,4.23s4.23-1.89,4.23-4.23v-15.34c0-2.33-1.89-4.23-4.23-4.23Z"/>
      <path class="cls-6" d="M196.04,94.47c-2.17-.86-4.62.18-5.49,2.34l-5.93,14.83c-.86,2.15.18,4.61,2.34,5.47,2.16.87,4.61-.18,5.48-2.34l5.93-14.83c.87-2.15-.18-4.61-2.33-5.48Z"/>
      <path class="cls-12" d="M168.67,86.74c-2.28-.46-4.51,1.03-4.96,3.31l-3.05,15.21c-.46,2.28,1.03,4.51,3.32,4.97,2.28.46,4.5-1.03,4.97-3.31l3.04-15.21c.45-2.29-1.04-4.51-3.32-4.96Z"/>
    </g>
  </g>
  <text class="cls-1" transform="translate(395.63 287.3) scale(1 1.09)"><tspan x="0" y="0">QL</tspan></text>
  <g>
    <path class="cls-10" d="M271.49,316.12c0,7.9-5.72,13.66-13.01,13.66-3.62,0-6.37-1.27-7.86-3.84l-.7,3.49h-6.46l6.46-32.38h6.81l-2.18,10.91c1.79-1.48,4.06-2.36,6.76-2.36,5.46,0,10.17,3.84,10.17,10.52ZM264.6,316.43c0-3.19-1.96-5.19-5.37-5.19-3.97,0-6.85,3.14-6.85,7.73,0,3.19,1.92,5.19,5.32,5.19,4.02,0,6.89-3.14,6.89-7.73Z"/>
    <path class="cls-10" d="M300.93,305.95l-15.62,25.05c-3.45,5.54-6.24,7.25-10.74,7.25-2.4,0-5.02-.79-6.37-2.05l3.14-4.89c.96.87,2.27,1.44,3.75,1.44,1.79,0,2.92-.83,4.23-2.88l.22-.39-5.41-23.52h6.81l3.49,15.97,9.78-15.97h6.72Z"/>
    <path class="cls-10" d="M310.24,326.55l2.88-5.45c2.79,2.05,6.46,3.19,10.08,3.19,3.88,0,6.33-1.35,6.33-3.58,0-4.89-15.15-2.27-15.15-12,0-6.28,5.5-10.34,13.97-10.34,4.1,0,7.9.92,10.56,2.62l-2.67,5.41c-2.31-1.57-5.28-2.36-8.29-2.36-4.1,0-6.5,1.57-6.5,3.75-.04,5.02,15.14,2.4,15.14,11.78,0,6.33-5.59,10.39-14.1,10.39-4.97,0-9.69-1.48-12.26-3.4Z"/>
    <path class="cls-10" d="M364.37,319.52h-17.98c.22,3.19,2.18,4.8,6.07,4.8,2.4,0,4.67-.79,6.29-2.18l2.84,4.5c-2.7,2.18-6.24,3.14-9.82,3.14-7.33,0-12-4.15-12-10.52,0-7.85,5.67-13.66,13.84-13.66,6.85,0,11.17,4.06,11.17,10.34,0,1.27-.18,2.49-.39,3.58ZM346.87,315.55h11.65c0-3.1-2.09-4.84-5.23-4.84s-5.5,1.92-6.42,4.84Z"/>
    <path class="cls-10" d="M391.79,319.52h-17.98c.22,3.19,2.18,4.8,6.07,4.8,2.4,0,4.67-.79,6.29-2.18l2.84,4.5c-2.7,2.18-6.24,3.14-9.82,3.14-7.33,0-12-4.15-12-10.52,0-7.85,5.67-13.66,13.84-13.66,6.85,0,11.17,4.06,11.17,10.34,0,1.27-.18,2.49-.39,3.58ZM374.29,315.55h11.65c0-3.1-2.09-4.84-5.23-4.84s-5.5,1.92-6.42,4.84Z"/>
    <path class="cls-10" d="M421.01,313.59c0,.87-.09,1.83-.31,2.84l-2.62,13.01h-6.81l2.53-12.57c.13-.57.17-1.14.17-1.61,0-2.4-1.31-3.75-4.02-3.75-3.45,0-5.85,1.92-6.68,6.02l-2.36,11.91h-6.81l4.67-23.48h6.46l-.52,2.53c2.14-1.96,4.84-2.88,7.72-2.88,5.15,0,8.56,2.79,8.56,7.99Z"/>
    <path class="cls-10" d="M424.99,319.26c0-7.81,5.93-13.66,14.19-13.66,7.2,0,11.83,4.15,11.83,10.52,0,7.81-5.89,13.66-14.19,13.66-7.16,0-11.83-4.19-11.83-10.52ZM444.1,316.43c0-3.19-1.92-5.19-5.32-5.19-4.02,0-6.89,3.14-6.89,7.73,0,3.19,1.96,5.19,5.37,5.19,3.97,0,6.85-3.14,6.85-7.73Z"/>
    <path class="cls-10" d="M480.43,305.95l-14.58,23.48h-7.03l-5.19-23.48h6.72l3.4,16.02,9.86-16.02h6.81Z"/>
    <path class="cls-10" d="M506.41,305.95l-4.67,23.48h-6.46l.44-2.31c-1.88,1.7-4.32,2.66-7.2,2.66-5.45,0-10.13-3.84-10.13-10.52,0-7.9,5.72-13.66,12.96-13.66,3.4,0,6.11,1.09,7.64,3.53l.61-3.19h6.81ZM497.51,316.43c0-3.19-1.96-5.19-5.37-5.19-4.02,0-6.89,3.14-6.89,7.73,0,3.19,1.96,5.19,5.37,5.19,4.02,0,6.9-3.14,6.9-7.73Z"/>
    <path class="cls-10" d="M517.29,321.14c-.09.35-.09.66-.09.96,0,1.44.79,2.27,2.49,2.27.92,0,1.88-.31,2.75-.83l1.01,4.84c-1.7,1.05-3.8,1.4-5.85,1.4-4.36,0-7.33-2.44-7.33-6.55,0-.65.09-1.35.22-2.05l1.88-9.47h-3.62l1.05-5.24h3.62l1.13-5.72h6.81l-1.13,5.72h5.85l-1.04,5.24h-5.85l-1.88,9.43Z"/>
    <path class="cls-10" d="M551.39,319.52h-17.98c.22,3.19,2.18,4.8,6.07,4.8,2.4,0,4.67-.79,6.29-2.18l2.84,4.5c-2.7,2.18-6.24,3.14-9.82,3.14-7.33,0-12-4.15-12-10.52,0-7.85,5.68-13.66,13.84-13.66,6.85,0,11.17,4.06,11.17,10.34,0,1.27-.18,2.49-.39,3.58ZM533.88,315.55h11.65c0-3.1-2.09-4.84-5.23-4.84s-5.5,1.92-6.42,4.84Z"/>
  </g>
</svg>